<svg xmlns="http://www.w3.org/2000/svg" xmlns:xlink="http://www.w3.org/1999/xlink" width="1392" zoomAndPan="magnify" viewBox="0 0 1044 576" height="768" preserveAspectRatio="xMidYMid meet" version="1.0"><rect x="-104.4" width="1252.8" fill="#ffffff" y="-57.6" height="691.2" fill-opacity="1"/><rect x="-104.4" width="1252.8" fill="#ffffff" y="-57.6" height="691.2" fill-opacity="1"/><path fill="#000000" d="M 212.023438 42.800781 C 196.261719 44.773438 182.058594 51.449219 171.574219 61.8125 C 162.351562 70.933594 157.320312 81.054688 154.859375 95.453125 C 152.347656 110.117188 154.105469 131.761719 159.5625 153.390625 C 162.195312 163.824219 162.195312 163.832031 161.253906 167.421875 C 159.683594 173.417969 159.910156 174.175781 165.410156 181.402344 C 171.273438 189.101562 176.101562 202.703125 177.359375 215.070312 C 177.792969 219.3125 176.667969 228.4375 175.777344 227.886719 C 175.433594 227.675781 175.355469 228.050781 175.574219 228.878906 C 175.769531 229.613281 175.664062 232.429688 175.335938 235.140625 C 174.664062 240.707031 175.261719 247.671875 177.148438 256.214844 C 178.757812 263.523438 180.335938 276.246094 180.664062 284.574219 C 180.953125 291.863281 181.183594 300.503906 181.851562 329.226562 C 182.371094 351.332031 181.296875 363.019531 177.066406 381.40625 C 174.746094 391.480469 174.523438 393.679688 175.644531 395.390625 C 176.828125 397.191406 180.179688 398.53125 184.527344 398.9375 C 190.621094 399.507812 193.023438 397.398438 195.746094 389.09375 C 200.273438 375.273438 202.070312 368.035156 204.550781 353.671875 C 205.75 346.707031 206.027344 342.671875 206.554688 324.511719 C 206.890625 312.917969 207.199219 303.394531 207.238281 303.34375 C 207.3125 303.25 241.683594 310.496094 246.015625 311.519531 C 249.308594 312.296875 251.726562 314.5 252.402344 317.339844 C 252.6875 318.539062 253.199219 320.675781 253.542969 322.09375 C 254.207031 324.851562 255.820312 339.019531 257.261719 354.742188 C 257.75 360.082031 258.765625 370.1875 259.511719 377.207031 C 260.542969 386.855469 260.960938 394.640625 261.234375 409.160156 C 261.46875 421.777344 261.800781 428.644531 262.207031 429.195312 C 262.542969 429.660156 263.789062 430.691406 264.96875 431.496094 C 268.96875 434.207031 275.492188 433.179688 278.324219 429.390625 C 279.355469 428.007812 279.476562 426.789062 279.785156 414.746094 C 279.972656 407.523438 280.640625 394.871094 281.273438 386.636719 C 281.90625 378.398438 282.703125 366.167969 283.042969 359.457031 C 284.625 328.191406 285.195312 323.3125 287.78125 318.902344 C 289.226562 316.441406 291.625 314.171875 294.179688 312.851562 C 295.6875 312.070312 295.746094 312.09375 296.0625 313.5625 C 297.980469 322.511719 298.578125 341.882812 297.25 352.167969 C 296.769531 355.898438 296.375 360.808594 296.375 363.085938 C 296.371094 365.359375 296.121094 368.71875 295.816406 370.550781 C 295.007812 375.433594 295.042969 380.472656 295.902344 382.226562 C 297.078125 384.625 299.320312 385.957031 302.648438 386.234375 C 305.386719 386.460938 305.800781 386.335938 307.664062 384.699219 C 309.039062 383.492188 309.695312 382.441406 309.699219 381.445312 C 309.699219 380.640625 309.941406 379.105469 310.234375 378.039062 C 310.976562 375.339844 314.457031 350.613281 315.472656 340.875 C 316.160156 334.242188 317.464844 313.53125 317.464844 309.222656 C 317.464844 308.597656 317.65625 308.199219 317.886719 308.34375 C 319.414062 309.285156 338.832031 311.054688 347.988281 311.085938 C 363.3125 311.136719 373.359375 309.445312 390.164062 303.992188 C 406.488281 298.695312 414.339844 297.363281 421.417969 298.699219 L 425.074219 299.386719 L 425.980469 302.113281 C 427.03125 305.273438 427.375 304.035156 419.628906 325.066406 C 417.15625 331.777344 414.851562 338.878906 414.503906 340.847656 C 413.214844 348.175781 414.824219 358.308594 418.097656 363.476562 C 420.671875 367.546875 421.191406 366.636719 419.992188 360.148438 C 419.230469 356.023438 419.011719 352.914062 419.199219 348.8125 C 419.460938 342.976562 420.308594 340.066406 427.792969 319.320312 L 429.464844 314.683594 L 429.875 318.488281 C 430.488281 324.230469 429.734375 343.28125 428.46875 353.910156 C 427.121094 365.253906 427.074219 369.214844 428.214844 376.585938 C 429.753906 386.566406 435.667969 402.261719 439.359375 406.175781 L 441.226562 408.15625 L 445.9375 407.824219 C 451.308594 407.445312 455.085938 406.035156 456.496094 403.886719 C 457.417969 402.476562 457.371094 402.316406 453.800781 394.820312 C 449.714844 386.242188 448.265625 381.59375 447.308594 373.972656 C 446.3125 366.058594 447.84375 356.449219 451.820312 345.671875 C 457.101562 331.351562 458.433594 319.5625 456.183594 307.039062 C 455.085938 300.953125 454.960938 298.710938 455.152344 288.734375 C 455.492188 271.121094 455.375 267.671875 454.339844 264.601562 C 452.996094 260.632812 450.214844 257.132812 445.761719 253.824219 C 443.628906 252.242188 441.738281 250.398438 441.5625 249.730469 C 441.382812 249.0625 441.230469 246.136719 441.226562 243.226562 C 441.214844 235.617188 439.386719 229.503906 434.566406 221.007812 C 430.566406 213.949219 429.414062 210.304688 429.132812 203.800781 C 428.882812 198.125 428.960938 197.625 431.234375 189.992188 C 433.230469 183.289062 433.546875 181.554688 433.316406 178.671875 C 432.824219 172.515625 430.105469 169.210938 423.777344 167.070312 C 421.515625 166.308594 418.660156 166.148438 407.246094 166.148438 C 386.386719 166.148438 366.902344 165.203125 325.101562 162.164062 L 315.8125 161.488281 L 316.222656 157.578125 C 316.992188 150.226562 316.621094 131.355469 315.59375 125.65625 C 312.449219 108.21875 306.566406 94.171875 297.167969 81.660156 C 282.632812 62.3125 262.089844 48.976562 239.257812 44.066406 C 235.300781 43.214844 231.394531 42.875 223.953125 42.742188 C 218.460938 42.640625 213.089844 42.667969 212.023438 42.800781 M 212.398438 46.902344 C 207.566406 47.457031 200.78125 49.183594 197.160156 50.785156 C 195.851562 51.363281 192.722656 53.179688 190.203125 54.820312 C 177.1875 63.300781 169.703125 76.515625 167.578125 94.769531 C 166.734375 102.050781 167.214844 123.066406 168.441406 132.3125 C 169.632812 141.289062 171.863281 152.234375 173.296875 156.132812 C 174.089844 158.289062 175.335938 160.101562 177.449219 162.175781 C 179.113281 163.808594 180.59375 165.023438 180.738281 164.875 C 180.882812 164.730469 180.484375 162.578125 179.847656 160.09375 C 175.539062 143.21875 173.71875 128.730469 173.679688 111 C 173.660156 103.269531 173.917969 98.945312 174.609375 95.128906 C 175.136719 92.242188 175.589844 89.253906 175.621094 88.492188 C 175.648438 87.730469 175.820312 86.980469 176.003906 86.828125 C 176.183594 86.675781 177.191406 84.550781 178.242188 82.109375 C 180.886719 75.957031 183.78125 71.730469 188.6875 66.84375 C 193.777344 61.773438 200.515625 58.070312 208.578125 55.910156 C 213.414062 54.613281 214.988281 54.464844 223.953125 54.445312 C 235.003906 54.417969 239.609375 55.121094 248.09375 58.113281 C 263.902344 63.6875 279.640625 75.636719 289.570312 89.601562 C 296.691406 99.613281 301.257812 110.089844 304.554688 123.972656 C 305.917969 129.722656 306.066406 131.351562 306.03125 140.078125 C 305.992188 150.730469 304.582031 162.21875 302.183594 171.4375 C 297.070312 191.105469 285.363281 206.234375 268.761719 214.621094 C 265.019531 216.511719 256.917969 219.203125 253.464844 219.703125 C 251.089844 220.046875 250.816406 220.222656 251.078125 221.269531 C 251.238281 221.917969 251.542969 223.515625 251.75 224.816406 C 251.957031 226.121094 252.347656 227.324219 252.621094 227.492188 C 253.453125 228.007812 260.824219 226.648438 265.265625 225.160156 C 274.144531 222.191406 283.125 216.828125 290.050781 210.363281 C 292.285156 208.277344 294.679688 206.472656 295.382812 206.347656 L 296.652344 206.117188 L 296.691406 215.394531 C 296.710938 220.492188 297.042969 226.476562 297.433594 228.6875 L 298.140625 232.710938 L 303.226562 232.671875 C 310.867188 232.613281 310.582031 233.121094 307.742188 224.597656 C 305.066406 216.558594 303.597656 207.929688 303.578125 200.101562 L 303.5625 195.269531 L 300.546875 198.597656 C 298.886719 200.425781 297.519531 201.605469 297.507812 201.214844 C 297.496094 200.828125 298.988281 197.9375 300.820312 194.792969 C 306.785156 184.578125 309.746094 175.410156 311.605469 161.433594 C 313.433594 147.695312 313.203125 136.742188 310.796875 123.074219 C 304.242188 85.878906 274.050781 55.144531 237.019531 47.972656 C 230.304688 46.667969 218.78125 46.167969 212.398438 46.902344 M 216.058594 58.535156 C 205.460938 60.03125 198.074219 63.421875 191.5625 69.773438 C 180.839844 80.238281 176.96875 94.253906 178.230469 118.035156 C 179.34375 139.046875 184.40625 166.335938 187.40625 167.488281 C 188.707031 167.988281 196.964844 168.359375 219.515625 168.933594 C 241.234375 169.492188 246.152344 170.074219 249.878906 172.539062 C 254.886719 175.851562 255.628906 179.726562 253.144531 189.636719 C 250.859375 198.738281 249.695312 207.515625 250.128906 212.296875 L 250.46875 216.011719 L 252.195312 215.683594 C 270.652344 212.199219 284.339844 201.792969 292.90625 184.726562 C 298.746094 173.082031 302.625 153.914062 302.214844 138.6875 C 301.917969 127.605469 297.769531 111.804688 292.691406 102.390625 C 286.550781 91.011719 277.464844 80.214844 268.152344 73.226562 C 262.914062 69.300781 253.777344 64.382812 247.671875 62.210938 C 238.757812 59.035156 224.355469 57.363281 216.058594 58.535156 M 167.421875 74.207031 C 162.382812 82.3125 159.375 92.328125 158.8125 102.914062 C 157.996094 118.140625 160.007812 136.878906 164.097656 152.238281 C 165.429688 157.246094 166.582031 161.386719 166.660156 161.4375 C 166.734375 161.492188 167.84375 161.421875 169.125 161.289062 L 171.457031 161.042969 L 170.546875 158.742188 C 170.042969 157.476562 169.246094 156.109375 168.769531 155.707031 C 168.1875 155.210938 168.164062 155.105469 168.691406 155.382812 C 169.285156 155.6875 169.382812 155.539062 169.09375 154.78125 C 168.289062 152.683594 166.003906 140.058594 165.125 132.867188 C 163.882812 122.648438 163.414062 101.050781 164.253906 92.628906 C 165.011719 85.042969 166.945312 77.039062 169.007812 72.976562 C 169.785156 71.441406 170.308594 70.1875 170.171875 70.1875 C 170.035156 70.1875 168.800781 71.996094 167.421875 74.207031 M 449.242188 109.265625 C 448.050781 110.457031 447.878906 111.125 447.878906 114.589844 C 447.878906 118.960938 448.8125 121.605469 450.792969 122.839844 C 451.476562 123.265625 453.789062 123.949219 455.925781 124.355469 C 460.164062 125.164062 461.9375 126.191406 463.800781 128.929688 C 466.558594 132.980469 466.617188 139.726562 463.984375 150.894531 C 462.863281 155.652344 456.1875 176.011719 449.253906 195.824219 C 446.902344 202.535156 443.699219 211.839844 442.132812 216.503906 L 439.285156 224.984375 L 440.761719 227.582031 C 441.574219 229.011719 442.445312 230.25 442.699219 230.335938 C 443.453125 230.578125 450.394531 211.125 463.453125 172.203125 C 470.257812 151.914062 472.046875 143.949219 471.625 135.832031 C 471.4375 132.152344 471.058594 130.628906 469.601562 127.667969 C 466.957031 122.300781 464.234375 120.363281 456.621094 118.417969 C 454.046875 117.761719 453.984375 117.695312 453.984375 115.597656 L 453.984375 113.453125 L 488.53125 113.460938 C 507.53125 113.464844 523.371094 113.65625 523.734375 113.886719 C 524.652344 114.46875 525.398438 116.617188 526.949219 123.109375 C 527.679688 126.1875 529.898438 134.074219 531.871094 140.632812 C 535.078125 151.285156 538.734375 162.085938 556.644531 213.851562 C 559.335938 221.628906 564.445312 236.480469 568.003906 246.855469 C 571.558594 257.226562 575.699219 269.207031 577.199219 273.480469 C 578.703125 277.75 584.558594 294.722656 590.207031 311.199219 C 595.859375 327.671875 601.265625 343.148438 602.21875 345.589844 C 605.035156 352.800781 613.933594 369.410156 618.042969 375.125 L 618.941406 376.375 L 531.679688 376.375 L 531.679688 375.011719 C 531.679688 373.867188 532.007812 373.597656 533.757812 373.320312 C 539.175781 372.457031 540.835938 371.71875 543.640625 368.917969 C 547.160156 365.398438 548.019531 362.679688 547.640625 356.273438 C 547.363281 351.585938 545.46875 345.964844 530.308594 304.820312 C 528.316406 299.378906 526.359375 293.925781 524.441406 288.457031 C 522.84375 283.878906 520.957031 278.824219 520.253906 277.222656 L 518.976562 274.3125 L 458.921875 274.3125 L 459.089844 277.222656 L 459.257812 280.136719 L 487.351562 280.28125 L 515.449219 280.421875 L 517.230469 285.550781 C 519.375 291.722656 524.085938 304.773438 534.207031 332.554688 C 542.703125 355.882812 543.269531 358.335938 541.160156 362.6875 C 539.773438 365.546875 537.605469 366.695312 532.421875 367.304688 C 530.113281 367.574219 528.828125 368.078125 527.566406 369.203125 C 525.984375 370.617188 525.851562 371.007812 525.875 374.25 C 525.902344 378.464844 527.140625 381.164062 529.328125 381.773438 C 530.164062 382.007812 557.597656 382.15625 590.296875 382.109375 C 656.765625 382.007812 652.601562 382.265625 653.738281 378.175781 C 654.535156 375.316406 654.46875 372.800781 653.539062 370.578125 C 652.5625 368.246094 651.554688 367.695312 646.445312 366.710938 C 635.261719 364.550781 633.992188 362.164062 632.988281 341.429688 C 632.390625 329.085938 632.128906 181.355469 632.707031 182.34375 C 634.019531 184.589844 643.625 214.667969 648.96875 233.265625 C 655.789062 257.003906 659.617188 267.84375 669.429688 291.222656 C 678.773438 313.484375 682.648438 323.714844 688.84375 342.464844 C 693.101562 355.347656 694.1875 358.074219 695.660156 359.550781 C 699.113281 363.019531 704.363281 362.457031 707.097656 358.328125 C 709.136719 355.246094 711.914062 347.304688 730.652344 290.953125 C 739.734375 263.648438 751.507812 228.328125 756.820312 212.464844 C 762.132812 196.601562 767.246094 181.25 768.179688 178.351562 C 769.117188 175.453125 770.089844 173.003906 770.339844 172.90625 C 770.59375 172.808594 770.683594 172.421875 770.535156 172.042969 C 770.390625 171.664062 770.644531 170.496094 771.101562 169.445312 C 772.066406 167.21875 772.003906 160.039062 771.984375 271.195312 C 771.972656 314.164062 771.75 344.601562 771.421875 347.488281 C 769.878906 361.105469 767.882812 364.363281 759.988281 366.148438 C 752.457031 367.851562 751.988281 368.042969 750.828125 369.886719 C 749.191406 372.496094 749.554688 378.070312 751.492188 380.007812 C 753.816406 382.328125 759.03125 382.609375 799.722656 382.589844 C 836.070312 382.574219 845.5625 382.207031 847.9375 380.722656 C 849.449219 379.78125 850.222656 377.453125 850.222656 373.839844 C 850.222656 369.730469 848.546875 367.796875 844.238281 366.9375 C 837.855469 365.660156 836.351562 365.113281 834.21875 363.285156 C 831.539062 360.996094 830.480469 358.453125 829.695312 352.445312 C 829.273438 349.203125 829.140625 315.957031 829.25 241.863281 L 829.410156 135.917969 L 830.800781 132.613281 C 833.015625 127.335938 836.058594 125.761719 845.941406 124.78125 C 848.179688 124.558594 849.605469 124.070312 850.65625 123.164062 C 852.046875 121.96875 852.164062 121.539062 852.164062 117.742188 C 852.164062 113.179688 851.390625 111.136719 849.304688 110.183594 C 847.816406 109.507812 775.824219 109.273438 772.511719 109.933594 C 769.746094 110.488281 766.875 113.71875 765.691406 117.617188 C 761.007812 133.039062 718.59375 260.445312 718.144531 260.445312 C 717.664062 260.445312 710.921875 239.925781 708.480469 231.046875 C 707.433594 227.234375 705.539062 220.117188 704.273438 215.238281 C 701.945312 206.269531 695.933594 186.011719 693.332031 178.351562 C 688.136719 163.0625 667.167969 113.96875 664.710938 111.335938 C 661.945312 108.375 663.078125 108.460938 626.1875 108.464844 C 604.132812 108.464844 591.148438 108.671875 589.8125 109.042969 C 586.960938 109.835938 586.0625 111.75 586.0625 117.050781 C 586.0625 123.519531 587.238281 124.625 594.941406 125.429688 C 602.386719 126.203125 607.457031 129.480469 608.769531 134.359375 C 610.625 141.257812 610.675781 143.714844 610.828125 239.921875 C 610.914062 292.546875 610.804688 338.601562 610.585938 342.261719 L 610.183594 348.917969 L 608.992188 346.671875 C 608.335938 345.4375 606.175781 339.695312 604.191406 333.914062 C 602.207031 328.132812 597.417969 314.289062 593.550781 303.15625 C 589.679688 292.019531 583.9375 275.421875 580.789062 266.269531 C 567.867188 228.722656 557.601562 198.921875 553.074219 185.839844 C 542.972656 156.628906 537.710938 140.414062 533.90625 126.769531 C 531.738281 118.996094 529.589844 112.054688 529.125 111.351562 C 528.664062 110.648438 527.488281 109.585938 526.515625 108.992188 C 524.804688 107.949219 523.4375 107.910156 487.671875 107.90625 L 450.605469 107.90625 Z M 591.613281 116.753906 C 591.613281 118.863281 591.695312 118.960938 593.695312 119.273438 C 600.546875 120.339844 602.71875 120.882812 605.210938 122.144531 C 610.757812 124.957031 613.472656 128.753906 615.269531 136.226562 C 616.203125 140.101562 616.273438 146.664062 616.460938 242.972656 C 616.640625 338.113281 616.585938 346.046875 615.695312 351.851562 C 614.789062 357.757812 614.789062 358.289062 615.675781 361.105469 C 616.808594 364.695312 620.300781 370.078125 623.085938 372.519531 C 626.402344 375.433594 628.296875 375.933594 636.84375 376.175781 C 646.726562 376.457031 648.773438 376.160156 648.773438 374.457031 C 648.773438 373.347656 648.347656 373.105469 645.328125 372.511719 C 633.523438 370.191406 629.75 365.867188 627.898438 352.523438 C 627.027344 346.230469 626.917969 337.082031 626.714844 253.414062 L 626.496094 161.238281 L 627.667969 160.609375 C 629.464844 159.648438 630.820312 160.414062 631.847656 162.980469 C 636.742188 175.195312 647.261719 206.371094 651.339844 220.738281 C 660.628906 253.484375 664.375 264.296875 676.238281 292.617188 C 683.710938 310.457031 687.457031 320.320312 692.835938 336.351562 C 695.988281 345.738281 698.859375 353.96875 699.21875 354.636719 C 700.296875 356.652344 701.953125 356.164062 703.09375 353.492188 C 705.214844 348.527344 713.382812 324.394531 741.664062 239.523438 C 757.75 191.253906 771.585938 150.070312 772.417969 148 C 773.683594 144.847656 774.160156 144.210938 775.359375 144.070312 C 776.144531 143.980469 777.085938 144.265625 777.453125 144.710938 C 777.972656 145.332031 778.074219 168.25 777.90625 246.382812 C 777.714844 335.273438 777.582031 347.8125 776.8125 351.96875 C 775.5625 358.691406 774.441406 362.015625 772.386719 365.070312 C 769.597656 369.214844 765.859375 371.070312 756.851562 372.777344 C 755.691406 372.996094 755.324219 373.386719 755.324219 374.398438 C 755.324219 375.628906 755.613281 375.765625 759.070312 376.1875 C 763.898438 376.78125 838.558594 376.789062 842.035156 376.199219 C 844.378906 375.800781 844.671875 375.59375 844.671875 374.332031 C 844.671875 373.128906 844.542969 373.019531 843.839844 373.601562 C 843.164062 374.164062 843.007812 374.136719 843.007812 373.453125 C 843.007812 372.878906 842.183594 372.5 840.371094 372.238281 C 832.472656 371.097656 827.082031 366.222656 825.015625 358.347656 C 823.128906 351.144531 822.96875 340.625 823.171875 238.257812 C 823.386719 130.34375 823.273438 134.675781 826.054688 128.835938 C 827.449219 125.90625 831.960938 122.039062 835.558594 120.695312 C 837.230469 120.070312 840.339844 119.398438 842.46875 119.199219 L 846.339844 118.839844 L 846.339844 115.144531 L 810.667969 115.15625 C 783.992188 115.164062 774.648438 115.335938 773.625 115.835938 C 772.480469 116.394531 771.804688 117.894531 769.582031 124.824219 C 768.117188 129.398438 757.070312 162.847656 745.042969 199.152344 C 733.011719 235.457031 722.597656 267.214844 721.902344 269.730469 C 721.210938 272.246094 720.492188 274.304688 720.308594 274.308594 C 720.125 274.308594 718.980469 273.59375 717.769531 272.714844 C 715.761719 271.261719 715.332031 270.460938 712.925781 263.703125 C 708.03125 249.957031 705.335938 241.371094 701.714844 227.996094 C 691.691406 190.996094 687.929688 179.199219 679.957031 159.753906 C 672.617188 141.855469 662.253906 118.25 660.660156 115.808594 L 659.847656 114.5625 L 591.613281 114.5625 Z M 474.957031 159.90625 C 474.492188 160.441406 473.351562 163.125 472.421875 165.871094 C 471.496094 168.617188 466.203125 184.214844 460.667969 200.539062 C 449.933594 232.183594 444.550781 248.195312 444.550781 248.472656 C 444.550781 248.886719 449.039062 251.707031 449.289062 251.453125 C 449.816406 250.925781 456.703125 230.835938 474.921875 176.6875 C 476 173.484375 477.050781 170.671875 477.261719 170.4375 C 477.472656 170.203125 479.964844 176.570312 482.804688 184.582031 C 485.804688 193.046875 488.8125 201.507812 491.820312 209.96875 C 493.9375 215.917969 498.035156 227.523438 500.929688 235.761719 C 503.820312 243.996094 506.929688 252.808594 507.835938 255.34375 C 508.738281 257.875 509.480469 260.058594 509.480469 260.195312 C 509.480469 260.332031 497.464844 260.445312 482.78125 260.445312 C 460.164062 260.445312 456.128906 260.5625 456.382812 261.21875 C 456.546875 261.644531 456.988281 263.019531 457.363281 264.269531 L 458.042969 266.546875 L 513.320312 266.546875 L 514.472656 265.308594 C 516.433594 263.207031 516.394531 261.859375 514.1875 255.570312 C 511.90625 249.070312 504.011719 226.847656 496.414062 205.53125 C 493.746094 198.054688 490.335938 188.445312 488.832031 184.175781 C 485.078125 173.511719 481.222656 162.90625 480.320312 160.738281 C 479.679688 159.207031 479.285156 158.9375 477.683594 158.9375 C 476.582031 158.9375 475.449219 159.339844 474.957031 159.90625 M 168.59375 165.683594 C 166.359375 166.5 167.144531 167.074219 171.488281 167.808594 C 177.042969 168.742188 177.960938 168.347656 174.445312 166.53125 C 171.296875 164.910156 170.882812 164.847656 168.59375 165.683594 M 314.992188 165.753906 C 314.640625 166.941406 313.539062 174.613281 313.703125 174.757812 C 313.789062 174.832031 324.222656 175.175781 336.886719 175.519531 C 359.902344 176.140625 379.324219 176.886719 394.734375 177.738281 C 402.246094 178.152344 403.089844 178.308594 405.128906 179.65625 C 406.351562 180.46875 407.894531 182.183594 408.566406 183.480469 C 409.699219 185.667969 409.796875 186.667969 409.875 197.210938 C 409.972656 209.921875 410.144531 210.976562 414.035156 223.003906 C 416.730469 231.320312 417.898438 236.847656 417.726562 240.445312 C 417.640625 242.238281 417.777344 242.398438 419.992188 243.042969 L 422.351562 243.734375 L 422.347656 240.300781 C 422.34375 236.292969 420.882812 229.820312 418.574219 223.558594 C 415.828125 216.121094 414.902344 210.988281 414.960938 203.589844 C 415.007812 197.839844 415.285156 195.886719 417.015625 189.238281 C 418.121094 185.003906 419.023438 180.429688 419.023438 179.074219 C 419.023438 176.871094 418.722656 176.292969 416.289062 173.742188 L 413.554688 170.878906 L 401.445312 170.496094 C 382.777344 169.90625 363.628906 168.933594 353.535156 168.0625 C 348.5 167.625 339.011719 166.894531 332.449219 166.433594 C 325.886719 165.972656 319.320312 165.480469 317.855469 165.339844 C 316.0625 165.167969 315.128906 165.304688 314.992188 165.753906 M 164.632812 171.921875 C 164.054688 174.125 167.621094 177.613281 172.03125 179.171875 C 176.835938 180.863281 181.664062 181.242188 203.191406 181.59375 L 225.160156 181.957031 L 227.453125 183.542969 C 228.820312 184.492188 230.234375 186.140625 230.960938 187.640625 C 232.136719 190.078125 232.164062 190.535156 231.816406 202.972656 C 231.425781 217.046875 231.851562 223.917969 233.941406 237.148438 C 236.054688 250.519531 236.621094 258.023438 236.570312 271.816406 C 236.515625 285.980469 236.628906 286.507812 240.074219 287.949219 C 242.34375 288.894531 244.996094 289.003906 244.453125 288.125 C 244.246094 287.789062 243.882812 279.988281 243.644531 270.789062 L 243.214844 254.066406 L 240.414062 245.417969 C 235.820312 231.253906 235.128906 227.128906 235.125 213.851562 L 235.125 202.480469 L 237.449219 193.609375 C 238.726562 188.730469 239.769531 183.785156 239.769531 182.625 C 239.769531 178.511719 237.09375 175.527344 232.5 174.535156 C 231.15625 174.246094 223.316406 173.859375 215.074219 173.679688 C 192.371094 173.175781 172.1875 172.222656 168.359375 171.464844 C 165.082031 170.820312 164.914062 170.839844 164.632812 171.921875 M 419.351562 171.257812 C 419.585938 171.648438 420.402344 172.808594 421.171875 173.828125 C 423.457031 176.871094 423.40625 180.582031 420.96875 189.355469 C 419.476562 194.722656 419.011719 197.296875 419.265625 198.777344 C 419.519531 200.253906 419.460938 200.585938 419.050781 199.984375 C 418.644531 199.386719 418.480469 200.546875 418.476562 204.074219 C 418.464844 209.957031 419.796875 216.171875 423.277344 226.488281 C 424.808594 231.035156 426.011719 235.851562 426.414062 239.0625 C 426.773438 241.925781 427.222656 244.421875 427.410156 244.609375 C 427.597656 244.796875 429.785156 245.792969 432.265625 246.824219 L 436.78125 248.699219 L 436.78125 244.132812 C 436.78125 238.03125 435.5 233.644531 430.773438 223.558594 C 425.679688 212.683594 424.902344 209.75 424.894531 201.371094 C 424.890625 195.371094 425.066406 194.171875 426.679688 189.222656 C 429.140625 181.660156 429.4375 178.640625 428.027344 175.460938 C 427.097656 173.359375 426.515625 172.800781 424.496094 172.078125 C 420.628906 170.699219 418.855469 170.417969 419.351562 171.257812 M 240.433594 175.378906 C 242.371094 177.429688 243.65625 180.546875 243.65625 183.1875 C 243.652344 185.117188 242.292969 191.144531 240.082031 198.996094 C 238.671875 204.019531 238.125 212.066406 238.695312 219.570312 C 239.273438 227.246094 240.539062 233.351562 243.953125 244.929688 C 246.519531 253.640625 247.542969 261.035156 247.5 270.523438 C 247.476562 276.140625 248.308594 283.890625 249.257812 286.882812 C 250.175781 289.773438 251.265625 289.609375 251.9375 286.480469 C 252.257812 284.972656 253.527344 281.742188 254.757812 279.300781 C 257.285156 274.273438 258.640625 269.667969 258.640625 266.101562 C 258.640625 261.59375 256.386719 252.464844 252.445312 241.03125 C 246.550781 223.914062 246.21875 222.234375 246.183594 209.414062 L 246.152344 198.597656 L 248.300781 191.207031 C 252.007812 178.449219 250.953125 176.019531 240.882812 174.148438 L 238.9375 173.789062 Z M 312.574219 180.0625 C 308.804688 190.335938 307.835938 193.90625 307.613281 198.320312 C 307.238281 205.738281 309.796875 218.867188 313.582031 228.984375 L 314.769531 232.15625 L 323.46875 232.15625 C 337.875 232.160156 366.289062 233.960938 380.730469 235.785156 C 388.425781 236.761719 398.222656 238.398438 406.675781 240.128906 L 412.917969 241.40625 L 412.914062 238.863281 C 412.910156 237.460938 412.316406 234.070312 411.59375 231.324219 C 410.871094 228.578125 409.496094 223.375 408.542969 219.765625 C 406.210938 210.9375 405.507812 204.15625 405.972656 194.917969 C 406.53125 183.859375 405.628906 182.65625 396.269531 182.007812 C 376.769531 180.660156 351.570312 179.542969 330.386719 179.09375 L 313.066406 178.726562 Z M 172.621094 184.714844 C 172.621094 184.863281 173.101562 185.769531 173.6875 186.730469 L 174.753906 188.484375 L 175.007812 186.882812 C 175.207031 185.628906 175.265625 185.761719 175.289062 187.503906 C 175.304688 188.722656 176.195312 192.21875 177.269531 195.269531 C 181.574219 207.480469 182.472656 217.136719 180.433594 229.382812 C 178.953125 238.296875 178.980469 241.191406 180.667969 251.460938 C 181.429688 256.105469 182.054688 260.042969 182.054688 260.203125 C 182.054688 260.367188 183.789062 258.742188 185.910156 256.589844 L 189.765625 252.683594 L 188.269531 249.492188 C 186.851562 246.464844 186.773438 245.863281 186.773438 237.894531 C 186.773438 233.269531 186.9375 229.589844 187.140625 229.714844 C 187.34375 229.839844 187.695312 228.007812 187.921875 225.640625 C 188.785156 216.625 185.953125 202.828125 180.960938 191.753906 C 178.207031 185.640625 177.171875 184.453125 174.605469 184.453125 C 173.515625 184.453125 172.621094 184.570312 172.621094 184.714844 M 184.25 190.628906 C 190.023438 202.742188 192.113281 214.820312 190.886719 228.980469 C 190.109375 237.914062 190.542969 243.636719 192.332031 248.101562 L 193.242188 250.378906 L 196.113281 248.691406 C 197.691406 247.765625 199.132812 246.761719 199.320312 246.464844 C 199.507812 246.171875 199.828125 245.96875 200.027344 246.015625 C 201.136719 246.285156 201.285156 245.203125 200.894531 239.785156 C 200.050781 228.179688 199.738281 215.25 200.285156 214.453125 C 200.71875 213.824219 202.042969 214.484375 207.117188 217.867188 C 214.546875 222.820312 218.6875 224.953125 223.886719 226.511719 L 227.703125 227.652344 L 227.355469 225.113281 C 227.164062 223.714844 227.007812 222.039062 227.007812 221.386719 C 227.007812 220.425781 226.253906 219.921875 222.984375 218.703125 C 217.300781 216.585938 211.136719 212.929688 205.945312 208.601562 C 200.707031 204.238281 193.570312 195.601562 190.34375 189.71875 C 188.148438 185.722656 187.980469 185.5625 186.027344 185.554688 C 184.914062 185.550781 183.4375 185.394531 182.753906 185.210938 C 181.601562 184.90625 181.714844 185.316406 184.25 190.628906 M 192.902344 186.191406 C 198.539062 195.691406 204.648438 203.09375 210.460938 207.460938 C 213.765625 209.945312 226.195312 216.511719 226.679688 216.027344 C 227.011719 215.695312 227.847656 199.550781 227.800781 194.4375 C 227.71875 186.152344 227.28125 185.960938 207.648438 185.664062 C 194.910156 185.46875 192.527344 185.554688 192.902344 186.191406 M 291.046875 215.054688 C 290.160156 216.488281 291.753906 230.0625 293.054688 232.167969 C 293.960938 233.632812 294.257812 232.261719 293.679688 229.289062 C 293.367188 227.660156 292.941406 223.769531 292.738281 220.640625 C 292.386719 215.164062 291.921875 213.636719 291.046875 215.054688 M 282.78125 220.867188 C 280.339844 222.503906 276.691406 224.710938 274.671875 225.769531 C 270.203125 228.117188 260.527344 231.402344 256.558594 231.917969 C 253.550781 232.3125 253.097656 232.863281 254.367188 234.59375 C 255.054688 235.535156 255.632812 235.539062 266.4375 234.714844 C 272.679688 234.242188 280.34375 233.6875 283.472656 233.488281 C 286.601562 233.285156 289.160156 232.96875 289.160156 232.777344 C 289.15625 232.585938 288.894531 231.488281 288.574219 230.332031 C 288.25 229.175781 287.816406 225.90625 287.605469 223.0625 L 287.21875 217.890625 Z M 208.480469 225.359375 C 211.996094 228 224.703125 233.265625 227.566406 233.265625 C 230 233.265625 228.210938 231.972656 223.378906 230.238281 C 220.644531 229.253906 216.78125 227.617188 214.796875 226.59375 C 211.058594 224.671875 206.335938 223.746094 208.480469 225.359375 M 204.53125 233.890625 C 204.835938 239.679688 205.113281 241.460938 205.804688 242 C 206.328125 242.414062 206.417969 242.695312 206.023438 242.695312 C 205.660156 242.695312 205.367188 243.132812 205.371094 243.664062 C 205.378906 244.214844 205.558594 244.394531 205.789062 244.082031 C 206.011719 243.777344 206.507812 243.5 206.890625 243.472656 C 207.269531 243.441406 208.144531 243.375 208.832031 243.324219 C 209.875 243.246094 209.945312 243.132812 209.25 242.632812 C 208.554688 242.132812 208.582031 242.089844 209.421875 242.359375 C 209.972656 242.539062 212.34375 242.191406 214.691406 241.589844 C 218.046875 240.730469 226.855469 239.398438 229.367188 239.371094 C 229.480469 239.371094 229.578125 239.328125 229.65625 239.246094 C 229.738281 239.164062 229.777344 239.066406 229.773438 238.949219 C 229.75 237.71875 228.417969 237.003906 224.300781 236.023438 C 221.796875 235.421875 217.980469 234.183594 215.828125 233.269531 C 213.675781 232.351562 211.648438 231.765625 211.328125 231.964844 C 210.992188 232.171875 210.90625 232.0625 211.121094 231.714844 C 211.695312 230.78125 209.238281 229.726562 206.820312 229.867188 C 204.785156 229.984375 204.683594 229.914062 204.941406 228.5625 C 205.09375 227.777344 204.972656 226.988281 204.679688 226.804688 C 204.339844 226.597656 204.289062 229.179688 204.53125 233.890625 M 298.042969 236.621094 C 291.480469 236.847656 282.738281 237.316406 278.617188 237.664062 C 270.945312 238.308594 256.832031 239.878906 256.601562 240.105469 C 256.53125 240.179688 257.34375 242.972656 258.410156 246.320312 C 262.839844 260.246094 262.976562 267.109375 259.050781 278.800781 C 255.386719 289.71875 255.441406 289.128906 258.085938 289.515625 L 262.523438 290.167969 C 264.621094 290.476562 264.746094 290.414062 264.746094 289.082031 C 264.746094 287.109375 266.617188 282.566406 268.894531 279.007812 C 277.097656 266.191406 295.273438 259.71875 331.0625 256.863281 C 333.199219 256.691406 342.0625 255.9375 350.761719 255.1875 C 380.226562 252.640625 390.960938 252.003906 404.59375 251.984375 C 415.292969 251.972656 419.015625 252.160156 422.074219 252.878906 C 424.210938 253.378906 426.550781 253.925781 427.273438 254.09375 C 430.675781 254.882812 426.679688 255.148438 413.847656 254.988281 C 406.164062 254.894531 395.503906 255.089844 390.164062 255.425781 C 370.671875 256.65625 322.945312 260.597656 315.523438 261.59375 C 298.730469 263.847656 284.390625 268.636719 278.113281 274.089844 C 274.859375 276.914062 271.667969 281.953125 270.855469 285.542969 C 270.492188 287.144531 270.066406 288.929688 269.90625 289.507812 C 269.621094 290.523438 270.035156 290.546875 282.300781 290.242188 C 289.28125 290.066406 302.355469 289.296875 311.359375 288.53125 C 320.363281 287.765625 331.476562 286.867188 336.054688 286.53125 C 378.175781 283.445312 431.90625 279.039062 438.140625 278.15625 C 443.449219 277.40625 449.042969 276.066406 449.921875 275.335938 C 450.824219 274.589844 450.890625 269.636719 450.042969 266.269531 C 447.996094 258.148438 436.066406 251.875 411.066406 245.785156 C 380.035156 238.222656 341.816406 235.125 298.042969 236.621094 M 223.953125 244.179688 C 206.269531 246.304688 189.851562 254.824219 185.285156 264.253906 C 183.691406 267.542969 183.328125 271.941406 184.460938 274.136719 C 185.457031 276.058594 190.785156 279.046875 196.484375 280.882812 C 203.835938 283.25 229.125 287.5 231.175781 286.710938 C 232.113281 286.351562 232.460938 278.714844 232.164062 264.945312 C 231.984375 256.714844 230.84375 244.007812 230.246094 243.578125 C 230.144531 243.507812 227.3125 243.777344 223.953125 244.179688 M 442.375 250.230469 C 442.402344 250.875 442.53125 251.007812 442.710938 250.5625 C 442.871094 250.164062 442.847656 249.683594 442.664062 249.5 C 442.480469 249.316406 442.351562 249.644531 442.375 250.230469 M 445.144531 281.101562 C 442.269531 281.644531 439.773438 282.230469 439.597656 282.40625 C 439.421875 282.582031 439.277344 286.761719 439.277344 291.691406 L 439.277344 300.660156 L 441.617188 305.097656 C 442.90625 307.539062 444.269531 310.90625 444.652344 312.585938 C 445.832031 317.738281 445.453125 328.503906 443.808594 336.65625 C 443.015625 340.589844 442.496094 344.023438 442.65625 344.285156 C 442.816406 344.542969 442.722656 344.757812 442.449219 344.757812 C 441.890625 344.757812 439.351562 354.65625 438.464844 360.289062 C 437.726562 364.984375 437.734375 374.734375 438.476562 378.90625 C 439.441406 384.292969 441.683594 390.753906 444.734375 396.921875 C 447.585938 402.6875 447.613281 402.722656 449.757812 402.898438 C 450.941406 402.996094 452.136719 402.851562 452.410156 402.574219 C 452.707031 402.28125 451.976562 400.058594 450.625 397.128906 C 444.53125 383.949219 443.183594 378.886719 443.226562 369.441406 C 443.261719 362.832031 443.449219 361.535156 445.496094 353.910156 C 446.722656 349.332031 448.664062 342.59375 449.808594 338.933594 C 453.695312 326.507812 454.242188 319.816406 452.242188 309.183594 C 451.402344 304.722656 450.957031 299.550781 450.714844 291.5 L 450.375 280.117188 Z M 185.207031 285.265625 C 185.589844 291.015625 186.113281 291.792969 191.066406 294.019531 C 195.402344 295.960938 226.503906 303.5625 236.441406 305.105469 C 237.816406 305.320312 241.609375 306.089844 244.871094 306.820312 C 248.132812 307.550781 250.882812 308.148438 250.976562 308.148438 C 251.070312 308.148438 251.070312 304.933594 250.980469 301.007812 L 250.808594 293.863281 L 248.480469 293.558594 C 245.007812 293.105469 230.59375 291.105469 221.457031 289.804688 C 205.789062 287.582031 192.179688 284.332031 187.785156 281.765625 C 186.507812 281.023438 185.335938 280.414062 185.175781 280.414062 C 185.015625 280.414062 185.03125 282.597656 185.207031 285.265625 M 426.234375 282.695312 C 423.335938 282.953125 416.21875 283.542969 410.421875 284.007812 C 404.621094 284.472656 387.765625 285.847656 372.960938 287.058594 C 358.15625 288.269531 340.675781 289.636719 334.113281 290.089844 C 307.390625 291.9375 287.703125 293.785156 287.914062 294.417969 C 287.988281 294.648438 288.050781 298.59375 288.050781 303.1875 C 288.050781 308.703125 288.242188 311.421875 288.617188 311.191406 C 288.925781 311 289.03125 310.605469 288.851562 310.3125 C 288.671875 310.023438 288.730469 309.847656 288.980469 309.921875 C 289.234375 309.996094 290.5625 309.398438 291.9375 308.589844 C 299.863281 303.929688 311.734375 302.570312 324.679688 304.839844 C 341.128906 307.722656 357.609375 307.703125 372.765625 304.777344 C 375.953125 304.164062 383.230469 302.152344 388.941406 300.3125 C 411.144531 293.15625 418.777344 292.398438 430.769531 296.160156 C 434.0625 297.195312 434.074219 297.167969 434.429688 288.59375 L 434.699219 282.078125 L 433.101562 282.152344 C 432.226562 282.195312 429.136719 282.4375 426.234375 282.695312 M 278.0625 294.664062 C 276.078125 294.753906 273.679688 294.960938 272.730469 295.121094 L 271.003906 295.410156 L 270.636719 301.363281 C 270.023438 311.300781 270.226562 374.777344 270.90625 385.804688 C 271.253906 391.449219 271.585938 403.238281 271.648438 412.003906 C 271.707031 420.769531 271.941406 428.128906 272.167969 428.351562 C 272.390625 428.578125 273.25 428.386719 274.070312 427.925781 L 275.566406 427.089844 L 275.917969 414.351562 C 276.113281 407.34375 276.546875 398.117188 276.886719 393.847656 C 277.222656 389.574219 277.882812 378.46875 278.351562 369.164062 C 279.285156 350.628906 280.640625 329.960938 281.207031 325.640625 C 281.40625 324.128906 282.152344 321.398438 282.867188 319.574219 C 284.074219 316.492188 284.167969 315.480469 284.167969 305.269531 L 284.167969 294.28125 L 282.917969 294.386719 C 282.230469 294.445312 280.046875 294.570312 278.0625 294.664062 M 255.648438 295.710938 C 254.957031 297.511719 255.332031 311.21875 256.179688 315.082031 C 258.230469 324.4375 259.160156 329.9375 259.734375 336.160156 C 260.074219 339.820312 260.964844 349.554688 261.714844 357.792969 C 262.464844 366.027344 263.222656 373.765625 263.398438 374.988281 C 263.570312 376.207031 264.132812 383.945312 264.644531 392.183594 C 265.34375 403.386719 265.460938 409.507812 265.109375 416.492188 C 264.6875 424.984375 264.730469 425.917969 265.613281 426.890625 C 266.144531 427.480469 267.066406 427.960938 267.660156 427.960938 C 268.71875 427.960938 268.738281 427.535156 268.453125 410.347656 C 268.292969 400.664062 267.878906 388.742188 267.53125 383.863281 C 266.128906 364 266.023438 340.960938 267.175781 304.746094 L 267.46875 295.519531 L 265.757812 295.175781 C 264.820312 294.988281 262.234375 294.835938 260.015625 294.835938 C 256.851562 294.835938 255.910156 295.023438 255.648438 295.710938 M 185.710938 312.382812 C 186.363281 334.367188 186.277344 347.179688 185.429688 355.851562 C 184.640625 363.902344 181.925781 380.25 180.328125 386.566406 C 178.910156 392.160156 179.066406 393.789062 181.03125 394.015625 C 182.160156 394.148438 182.832031 393.753906 183.890625 392.351562 C 186.785156 388.519531 188.332031 382.433594 190.960938 364.523438 C 193.125 349.777344 193.441406 341.574219 192.394531 327.242188 C 191.925781 320.8125 191.640625 315.074219 191.757812 314.484375 C 191.878906 313.898438 192.109375 310.273438 192.273438 306.429688 L 192.566406 299.441406 L 191.058594 298.675781 C 190.226562 298.253906 188.570312 297.316406 187.375 296.585938 L 185.203125 295.261719 Z M 196.816406 301.90625 C 196.65625 302.441406 196.238281 305.75 195.886719 309.257812 C 195.402344 314.144531 195.417969 318.351562 195.949219 327.242188 C 196.917969 343.449219 195.898438 357.136719 192.363281 375.429688 C 191.609375 379.335938 191.128906 382.890625 191.300781 383.335938 C 191.46875 383.777344 191.371094 384.140625 191.082031 384.140625 C 190.484375 384.140625 187.925781 392.964844 188.390625 393.429688 C 189.464844 394.503906 193.101562 386.246094 192.378906 384.367188 C 192.203125 383.90625 192.285156 383.667969 192.5625 383.839844 C 193.664062 384.519531 199.359375 363.269531 198.824219 360.472656 C 198.648438 359.566406 198.757812 359.144531 199.105469 359.363281 C 199.457031 359.578125 200.132812 356.9375 200.894531 352.371094 C 201.859375 346.609375 202.234375 341.109375 202.65625 326.730469 C 202.949219 316.660156 203.117188 307.070312 203.027344 305.410156 C 202.882812 302.726562 202.714844 302.359375 201.480469 302.035156 C 197.226562 300.921875 197.121094 300.917969 196.816406 301.90625 M 410.246094 301.878906 C 409.964844 302.429688 406.417969 311.488281 402.367188 322.015625 C 392.292969 348.195312 390.175781 352.585938 384.277344 359.535156 C 380.09375 364.464844 375.847656 366.785156 366.167969 369.429688 C 362.351562 370.472656 361.304688 372 361.304688 376.542969 C 361.304688 378.902344 361.578125 379.832031 362.582031 380.917969 C 363.730469 382.152344 364.425781 382.328125 369.382812 382.609375 C 376.625 383.019531 423.804688 382.316406 424.332031 381.789062 C 424.980469 381.144531 424.714844 378.046875 423.929688 377.101562 C 423.296875 376.335938 420.125 376.289062 394.984375 376.652344 C 368.050781 377.046875 366.757812 377.019531 366.941406 376.074219 C 367.082031 375.355469 368.042969 374.898438 370.464844 374.402344 C 376.628906 373.140625 382.3125 369.746094 387.734375 364.082031 C 394.941406 356.550781 397.804688 350.601562 411.511719 314.660156 C 413.8125 308.632812 415.691406 303.605469 415.691406 303.492188 C 415.691406 303.132812 413.25 301.667969 411.980469 301.265625 C 411.109375 300.992188 410.621094 301.164062 410.246094 301.878906 M 430.425781 302.644531 C 431.300781 304.058594 433.960938 314.644531 434.582031 319.175781 C 435.582031 326.496094 434.957031 342.210938 433.214844 353.632812 C 431.492188 364.886719 431.34375 370.628906 432.757812 371 C 433.652344 371.234375 433.652344 371.257812 432.722656 371.316406 C 431.851562 371.375 431.765625 371.726562 432.070312 374.015625 C 432.878906 380.058594 433.480469 382.515625 435.652344 388.578125 C 438.363281 396.160156 441.132812 401.535156 442.453125 401.785156 C 443.207031 401.925781 442.835938 400.765625 440.6875 396.242188 C 439.191406 393.09375 437.492188 389.085938 436.90625 387.335938 C 436.324219 385.582031 435.726562 384.269531 435.578125 384.417969 C 435.429688 384.5625 435.3125 383.875 435.3125 382.886719 C 435.316406 381.898438 434.988281 379.21875 434.589844 376.929688 C 433.296875 369.527344 434.074219 361.210938 437.285156 348.074219 C 441.113281 332.414062 441.953125 327.222656 441.636719 321.183594 C 441.230469 313.445312 439.902344 309.546875 436.53125 306.171875 C 434.988281 304.625 432.90625 303.074219 431.90625 302.726562 C 430.808594 302.34375 430.21875 302.3125 430.425781 302.644531 M 308.585938 308.5 C 307.824219 308.613281 305.859375 308.976562 304.226562 309.3125 L 301.25 309.917969 L 301.585938 316.105469 C 302.480469 332.769531 302.582031 342.648438 301.921875 348.96875 C 301.539062 352.601562 301.035156 358.816406 300.796875 362.785156 C 300.558594 366.75 300.058594 371.902344 299.683594 374.230469 C 298.832031 379.503906 299.175781 381.011719 301.429688 381.945312 C 304.429688 383.1875 305.554688 381.46875 306.902344 373.601562 L 308.28125 365.558594 C 310.640625 351.773438 311.9375 338.113281 312.289062 323.261719 L 312.648438 308.148438 L 311.3125 308.222656 C 310.398438 308.28125 309.492188 308.375 308.585938 308.5 " fill-opacity="1" fill-rule="evenodd"/></svg>