<svg width="400" height="300" viewBox="0 0 400 300" fill="none" xmlns="http://www.w3.org/2000/svg">
  <!-- Sky background -->
  <rect width="400" height="300" fill="url(#skyGradient)"/>
  
  <!-- Clouds -->
  <g opacity="0.8">
    <ellipse cx="80" cy="60" rx="25" ry="15" fill="white"/>
    <ellipse cx="95" cy="55" rx="20" ry="12" fill="white"/>
    <ellipse cx="110" cy="60" rx="18" ry="10" fill="white"/>
    
    <ellipse cx="280" cy="45" rx="30" ry="18" fill="white"/>
    <ellipse cx="300" cy="40" rx="25" ry="15" fill="white"/>
    <ellipse cx="320" cy="45" rx="22" ry="12" fill="white"/>
  </g>
  
  <!-- Hills/Mountains -->
  <path d="M0 180 Q100 140 200 160 Q300 180 400 150 L400 300 L0 300 Z" fill="url(#hillGradient)"/>
  <path d="M0 220 Q150 180 300 200 Q350 210 400 190 L400 300 L0 300 Z" fill="url(#hill2Gradient)"/>
  
  <!-- Gradients -->
  <defs>
    <linearGradient id="skyGradient" x1="0%" y1="0%" x2="0%" y2="100%">
      <stop offset="0%" style="stop-color:#87CEEB;stop-opacity:1" />
      <stop offset="100%" style="stop-color:#E0F6FF;stop-opacity:1" />
    </linearGradient>
    <linearGradient id="hillGradient" x1="0%" y1="0%" x2="0%" y2="100%">
      <stop offset="0%" style="stop-color:#9ACD32;stop-opacity:1" />
      <stop offset="100%" style="stop-color:#6B8E23;stop-opacity:1" />
    </linearGradient>
    <linearGradient id="hill2Gradient" x1="0%" y1="0%" x2="0%" y2="100%">
      <stop offset="0%" style="stop-color:#8FBC8F;stop-opacity:1" />
      <stop offset="100%" style="stop-color:#556B2F;stop-opacity:1" />
    </linearGradient>
  </defs>
</svg>