<svg width="400" height="300" viewBox="0 0 400 300" fill="none" xmlns="http://www.w3.org/2000/svg">
  <!-- Sky background -->
  <rect width="400" height="300" fill="url(#skyGradient)"/>
  
  <!-- Clouds -->
  <g opacity="0.6">
    <ellipse cx="70" cy="55" rx="32" ry="18" fill="white"/>
    <ellipse cx="95" cy="50" rx="25" ry="14" fill="white"/>
    <ellipse cx="120" cy="55" rx="22" ry="12" fill="white"/>
    
    <ellipse cx="290" cy="40" rx="38" ry="22" fill="white"/>
    <ellipse cx="320" cy="35" rx="30" ry="17" fill="white"/>
    <ellipse cx="350" cy="40" rx="27" ry="15" fill="white"/>
  </g>
  
  <!-- Hills/Mountains -->
  <path d="M0 160 Q70 120 140 140 Q210 160 280 130 Q340 140 400 125 L400 300 L0 300 Z" fill="url(#hillGradient)"/>
  <path d="M0 200 Q100 160 200 180 Q300 190 400 170 L400 300 L0 300 Z" fill="url(#hill2Gradient)"/>
  
  <!-- Gradients -->
  <defs>
    <linearGradient id="skyGradient" x1="0%" y1="0%" x2="0%" y2="100%">
      <stop offset="0%" style="stop-color:#87CEEB;stop-opacity:1" />
      <stop offset="100%" style="stop-color:#E0F6FF;stop-opacity:1" />
    </linearGradient>
    <linearGradient id="hillGradient" x1="0%" y1="0%" x2="0%" y2="100%">
      <stop offset="0%" style="stop-color:#9ACD32;stop-opacity:1" />
      <stop offset="100%" style="stop-color:#6B8E23;stop-opacity:1" />
    </linearGradient>
    <linearGradient id="hill2Gradient" x1="0%" y1="0%" x2="0%" y2="100%">
      <stop offset="0%" style="stop-color:#8FBC8F;stop-opacity:1" />
      <stop offset="100%" style="stop-color:#556B2F;stop-opacity:1" />
    </linearGradient>
  </defs>
</svg>